<svg t="1721578413826" class="icon" viewBox="0 0 1100 1024" version="1.1" xmlns="http://www.w3.org/2000/svg"
    p-id="19306" width="200" height="200">
    <path
        d="M1041.11986 10.28081a34.85548 34.85548 0 0 1 3.96608 44.506726l-3.96608 4.94068-226.70275 226.540317h124.180262A34.869016 34.869016 0 0 1 972.897872 314.856795l0.55498 6.253682a34.828408 34.828408 0 0 1-28.588262 34.381716l-6.280754 0.568517-211.352803-0.094753-5.996497-1.055816-5.779918-2.084561-3.898399-2.098097-3.776575-2.788438-4.182657-4.182658-3.695358-5.224938-2.450036-5.306155-1.353611-4.669957-0.622661-4.345091-0.148897-211.420484a34.869016 34.869016 0 0 1 69.169516-6.280754l0.568517 6.280754v124.180263L991.767207 10.28081a34.841944 34.841944 0 0 1 49.352653 0zM87.000157 964.265152a34.85548 34.85548 0 0 1-3.96608-44.587943l3.96608-4.886535L313.689372 688.277429H189.522646a34.869016 34.869016 0 0 1-34.314036-28.588262l-0.554981-6.253682a34.828408 34.828408 0 0 1 28.588262-34.381717l6.280755-0.568516 211.352803 0.108289 5.996496 1.04228 5.779918 2.084561 3.8984 2.098097 3.776574 2.774902 4.182658 4.196194 3.695358 5.224938 2.450035 5.306154 1.353611 4.669958 0.622661 4.345091 0.17597 211.420484a34.869016 34.869016 0 0 1-69.169517 6.280754l-0.568516-6.280754v-124.180263L136.366346 964.265152a34.869016 34.869016 0 0 1-24.689862 10.246834 34.896089 34.896089 0 0 1-24.662791-10.246834z m0 0"
        fill="#4D4D4D" p-id="19307"></path>
    <path
        d="M87.067838 10.213129A34.85548 34.85548 0 0 1 131.628708 6.24705l4.872999 3.966079 226.553854 226.702751V112.735618a34.869016 34.869016 0 0 1 28.588262-34.314036l6.267218-0.554981a34.828408 34.828408 0 0 1 34.36818 28.588262l0.568517 6.280755-0.040608 211.352803-1.055817 5.996496-2.084561 5.779919-2.098097 3.911935-2.883191 3.763038-4.182657 4.182658-5.224938 3.695358-5.265547 2.450035-4.669957 1.353611-4.345091 0.622661-211.420484 0.148897a34.869016 34.869016 0 0 1-6.280754-69.169516l6.280754-0.55498h124.180262L87.067838 59.565782A34.85548 34.85548 0 0 1 76.807467 34.87592 34.896089 34.896089 0 0 1 87.054302 10.213129z m0 0M1041.038644 964.346368a34.828408 34.828408 0 0 1-44.49319 3.96608l-4.94068-3.96608-226.553853-226.716286v124.180262a34.85548 34.85548 0 0 1-28.588262 34.314036l-6.253682 0.55498a34.828408 34.828408 0 0 1-34.381717-28.588261l-0.568516-6.280755 0.148897-211.352803 1.055816-5.996496 2.084561-5.779919 2.098097-3.898399 2.788438-3.776575 4.182658-4.182657 5.224938-3.695358 5.292618-2.450036 4.669958-1.35361 4.358627-0.622661 211.420484-0.148898a34.869016 34.869016 0 0 1 6.280754 69.169516l-6.280754 0.568517h-124.234407l226.689215 226.729823a34.841944 34.841944 0 0 1 0 49.352653z m0 0"
        fill="#4D4D4D" p-id="19308"></path>
</svg>