<svg t="1724742293378" class="icon" viewBox="0 0 1152 1024" version="1.1" xmlns="http://www.w3.org/2000/svg" p-id="9218"
    width="200" height="200">
    <path
        d="M565.28704 603.712a28.992 28.992 0 0 0 12.8-3.072l535.04-269.888a32.832 32.832 0 0 0 0-57.6L578.08704 3.328a28.736 28.736 0 0 0-26.048 0L16.99904 273.152a32.896 32.896 0 0 0 0 57.6l535.04 269.888a29.184 29.184 0 0 0 13.248 3.072z m0-536.32l464.704 234.496L565.28704 536.32 100.58304 301.888z"
        fill="#FFFFFF" p-id="9219"></path>
    <path
        d="M1108.32704 478.592l-522.112 273.024-522.048-273.024a29.568 29.568 0 0 0-40.576 14.528 32.896 32.896 0 0 0 13.696 42.88L572.83904 816a29.056 29.056 0 0 0 13.376 3.328 29.504 29.504 0 0 0 13.44-3.328l535.488-280a32.896 32.896 0 0 0 13.76-42.88 29.568 29.568 0 0 0-40.576-14.528z"
        fill="#FFFFFF" p-id="9220"></path>
    <path
        d="M1108.32704 683.328l-522.112 272.96-522.048-272.96a29.568 29.568 0 0 0-40.576 14.528 32.896 32.896 0 0 0 13.696 42.88l535.552 279.936a29.056 29.056 0 0 0 13.376 3.328 29.504 29.504 0 0 0 13.44-3.328l535.488-279.936a32.896 32.896 0 0 0 13.76-42.88 29.568 29.568 0 0 0-40.576-14.528z"
        fill="#FFFFFF" p-id="9221"></path>
</svg>