<svg id="图层_1" data-name="图层 1" xmlns="http://www.w3.org/2000/svg" xmlns:xlink="http://www.w3.org/1999/xlink"
    viewBox="0 0 44.86 41.88">
    <defs>
        <style>
            .cls-1 {
                fill: url(#未命名的渐变_8);
            }

            .cls-2 {
                fill: url(#未命名的渐变_10);
            }

            .cls-3 {
                fill: #fff;
            }

            .cls-4 {
                fill: url(#未命名的渐变_10-2);
            }

            .cls-5 {
                fill: url(#未命名的渐变_10-3);
            }
        </style>
        <linearGradient id="未命名的渐变_8" x1="25" y1="46.42" x2="25" y2="7.44" gradientUnits="userSpaceOnUse">
            <stop offset="0" stop-color="#52ebff" />
            <stop offset="0.47" stop-color="#1f8fff" />
            <stop offset="1" stop-color="#1273eb" />
        </linearGradient>
        <linearGradient id="未命名的渐变_10" x1="11.86" y1="46.97" x2="11.86" y2="6.12" gradientUnits="userSpaceOnUse">
            <stop offset="0" stop-color="#52ebff" />
            <stop offset="0.47" stop-color="#1f8fff" />
            <stop offset="1" stop-color="#6941f9" />
        </linearGradient>
        <linearGradient id="未命名的渐变_10-2" x1="37.92" y1="46.97" x2="37.92" y2="6.12" xlink:href="#未命名的渐变_10" />
        <linearGradient id="未命名的渐变_10-3" x1="25" y1="46.96" x2="25" y2="6.65" xlink:href="#未命名的渐变_10" />
    </defs>
    <title>logo</title>
    <path class="cls-1"
        d="M22.87,35.56H37.78a9.68,9.68,0,0,0,9.65-9.66h0a9.68,9.68,0,0,0-9.57-9.65,12.92,12.92,0,0,0-25.72,0A9.68,9.68,0,0,0,2.57,25.9h0a9.68,9.68,0,0,0,9.65,9.66H22.87Z"
        transform="translate(-2.57 -4.56)" />
    <path class="cls-2"
        d="M6.92,45.94a3.42,3.42,0,1,1,2.87-5.28A5.63,5.63,0,0,0,15,35.09V30.35a3.42,3.42,0,1,1,3.69,0v4.74a9.31,9.31,0,0,1-8.84,9.26A3.41,3.41,0,0,1,6.92,45.94Z"
        transform="translate(-2.57 -4.56)" />
    <path class="cls-3"
        d="M16.8,24.55a2.92,2.92,0,0,1,1.35,5.51v5a8.78,8.78,0,0,1-8.64,8.77,2.92,2.92,0,1,1,0-2.69,6.09,6.09,0,0,0,6-6.08v-5a2.92,2.92,0,0,1,1.34-5.51m0-1a3.92,3.92,0,0,0-2.34,7.06v4.48a5.13,5.13,0,0,1-4.43,5,3.92,3.92,0,1,0,.05,4.71,9.82,9.82,0,0,0,9.07-9.75V30.61a3.92,3.92,0,0,0-2.35-7.06Z"
        transform="translate(-2.57 -4.56)" />
    <path class="cls-4"
        d="M42.86,45.94A3.41,3.41,0,0,1,40,44.35a9.31,9.31,0,0,1-8.84-9.26V30.35a3.43,3.43,0,1,1,3.69,0v4.74A5.63,5.63,0,0,0,40,40.66a3.42,3.42,0,1,1,2.87,5.28Z"
        transform="translate(-2.57 -4.56)" />
    <path class="cls-3"
        d="M33,24.55a2.92,2.92,0,0,1,1.34,5.51v5a6.09,6.09,0,0,0,6,6.08,2.93,2.93,0,1,1,0,2.69,8.78,8.78,0,0,1-8.64-8.77v-5A2.92,2.92,0,0,1,33,24.55m0-1a3.92,3.92,0,0,0-2.35,7.06v4.48a9.82,9.82,0,0,0,9.07,9.75,3.92,3.92,0,1,0,0-4.71,5.13,5.13,0,0,1-4.43-5V30.61A3.92,3.92,0,0,0,33,23.55Z"
        transform="translate(-2.57 -4.56)" />
    <path class="cls-5"
        d="M25,45.94a3.42,3.42,0,0,1-1.85-6.3V21.81a3.42,3.42,0,1,1,3.7,0V39.64A3.42,3.42,0,0,1,25,45.94Z"
        transform="translate(-2.57 -4.56)" />
    <path class="cls-3"
        d="M25,16a2.91,2.91,0,0,1,1.35,5.5V39.93a2.92,2.92,0,1,1-2.7,0V21.52A2.91,2.91,0,0,1,25,16m0-1a3.92,3.92,0,0,0-2.35,7.05V39.38a3.92,3.92,0,1,0,4.7,0V22.07A3.92,3.92,0,0,0,25,15Z"
        transform="translate(-2.57 -4.56)" />
</svg>