<svg t="1721134991629" class="icon" viewBox="0 0 1024 1024" version="1.1" xmlns="http://www.w3.org/2000/svg"
    p-id="33059" width="200" height="200">
    <path
        d="M13.5 14.2h-11c-0.3 0-0.5-0.2-0.5-0.5V3.2c0-0.3 0.2-0.5 0.5-0.5h11c0.3 0 0.5 0.2 0.5 0.5v10.5c-0.1 0.3-0.3 0.5-0.5 0.5zM3 13.3h10V3.7H3v9.6z"
        fill="#8a8a8a" p-id="33060"></path>
    <path
        d="M10.5 11.7c-0.1 0-0.2 0-0.3-0.1-0.2-0.2-0.2-0.5 0-0.6l1.1-1.1-1.1-1.1c-0.2-0.2-0.2-0.5 0-0.6s0.5-0.2 0.6 0l1.4 1.4c0.2 0.2 0.2 0.5 0 0.6l-1.4 1.4c-0.1 0-0.2 0.1-0.3 0.1z m-4.8 0c-0.1 0-0.2 0-0.3-0.1L4 10.1c-0.2-0.1-0.2-0.4 0-0.6l1.4-1.4c0.2-0.1 0.5-0.1 0.6 0 0.2 0.2 0.2 0.5 0 0.6L5 9.8l1 1.1c0.2 0.2 0.2 0.5 0 0.6-0.1 0.1-0.2 0.2-0.3 0.2z m1.8 0.2h-0.2c-0.2-0.1-0.3-0.4-0.3-0.6L8.5 8c0.1-0.2 0.4-0.3 0.6-0.3s0.3 0.4 0.3 0.6L8 11.6c-0.1 0.2-0.3 0.3-0.5 0.3z"
        fill="#8a8a8a" p-id="33061"></path>
    <path d="M13.5 6.9h-11c-0.3 0-0.5-0.2-0.5-0.5s0.2-0.5 0.5-0.5h11c0.3 0 0.5 0.2 0.5 0.5s-0.3 0.5-0.5 0.5z"
        fill="#8a8a8a" p-id="33062"></path>
    <path
        d="M11.4 5.5c-0.4 0-0.7-0.3-0.7-0.7s0.3-0.7 0.7-0.7 0.7 0.3 0.7 0.7-0.3 0.7-0.7 0.7z m0-0.9c-0.1 0-0.2 0.1-0.2 0.2s0.1 0.2 0.2 0.2 0.2-0.1 0.2-0.2 0-0.2-0.2-0.2z m-1.8 0.9c-0.4 0-0.7-0.3-0.7-0.7s0.3-0.7 0.7-0.7 0.7 0.3 0.7 0.7-0.3 0.7-0.7 0.7z m0-0.9c-0.1 0-0.2 0.1-0.2 0.2s0.1 0.2 0.2 0.2 0.2-0.1 0.2-0.2-0.1-0.2-0.2-0.2z"
        fill="#8a8a8a" p-id="33063"></path>
    <path
        d="M124.9 287.9v447.7l387.8 223.9 387.8-223.9V287.9L512.7 64.1 124.9 287.9z m360.6-144.5V336l-2.1 0.4c-38.6 6.6-74.6 26-101.1 54.9l-1.4 1.5-157.4-98.2 262-151.2zM180 332.4l170.7 106.5-0.9 2c-15.5 35.7-18.8 76-9.5 113.8l0.5 1.7L180 656.7V332.4zM485.5 880L211.3 721.9l161.5-100.7 1.4 1.7c27.2 34.2 66.1 57 109.2 64.3l2.1 0.4V880z m58.8-2.3l-1.2-2.1h-2.5v-188l2.1-0.4c41-6.9 78.4-28.2 105.4-59.8l1.4-1.6 159.3 99.3c-0.1 0-264.5 152.6-264.5 152.6zM845.2 683L677.8 578.5l0.7-1.9c14.5-36.9 16.1-78.3 4.7-116.3l-0.6-2 162.6-85.8V683zM540.6 143.8L829 310.3l-175.5 92.5-1.2-1.6c-27.4-34.4-66.3-57.5-109.6-64.8l-2.1-0.4V143.8z m95 368c0 67.6-55 122.6-122.6 122.6s-122.6-55-122.6-122.6c0-32.7 12.8-63.5 35.9-86.7s54-35.9 86.7-35.9c67.6 0 122.7 55 122.6 122.6z"
        fill="#8a8a8a" p-id="33064"></path>
</svg>