<svg t="1720946779407" class="icon" viewBox="0 0 1024 1024" version="1.1" xmlns="http://www.w3.org/2000/svg" p-id="6448"
    width="200" height="200">
    <path
        d="M113.7 399.8H437c0.7 0 1.3 0 2-0.1 0.7 0.1 1.3 0.1 2 0.1 72.3 0 131.1-58.8 131.1-131.1S513.3 137.6 441 137.6c-51.7 0-98.7 30.5-119.8 77.7-5.5 12.4 0 27 12.5 32.6 12.4 5.5 27 0 32.6-12.5 13.2-29.5 42.5-48.5 74.7-48.5 45.1 0 81.8 36.7 81.8 81.8 0 45.1-36.7 81.8-81.8 81.8-0.7 0-1.3 0-2 0.1-0.6-0.1-1.3-0.1-2-0.1H113.7c-13.6 0-24.6 11-24.6 24.6 0 13.7 11 24.7 24.6 24.7z m0 0"
        fill="" p-id="6449"></path>
    <path
        d="M113.7 553.6H784c85.3 0 154.8-69.4 154.8-154.8 0-85.3-69.4-154.8-154.8-154.8-71.2 0-133 48.2-150.2 117.3-3.3 13.2 4.8 26.6 18 29.9 13.2 3.3 26.6-4.8 29.9-18 11.7-47 53.8-79.9 102.4-79.9 58.2 0 105.5 47.3 105.5 105.5s-47.3 105.5-105.5 105.5H113.7c-13.6 0-24.6 11-24.6 24.6 0 13.6 11 24.7 24.6 24.7z m0 0"
        fill="" p-id="6450"></path>
    <path
        d="M925.3 741.7c0.2-0.2 0.3-0.4 0.4-0.6 0.1-0.1 0.2-0.3 0.3-0.4 0.2-0.2 0.3-0.4 0.4-0.6 0.1-0.1 0.2-0.2 0.2-0.4 0.1-0.2 0.3-0.4 0.4-0.7 0.1-0.1 0.2-0.2 0.2-0.4 0.1-0.2 0.3-0.4 0.4-0.7 0.1-0.1 0.2-0.3 0.2-0.4l0.3-0.6c0.1-0.2 0.2-0.3 0.2-0.5l0.3-0.6c0.1-0.2 0.2-0.4 0.2-0.5 0.1-0.2 0.1-0.3 0.2-0.5s0.2-0.4 0.2-0.6c0.1-0.2 0.1-0.3 0.2-0.5s0.2-0.5 0.2-0.7c0-0.1 0.1-0.3 0.1-0.4 0.1-0.3 0.1-0.5 0.2-0.8 0-0.1 0.1-0.2 0.1-0.4 0.1-0.3 0.1-0.5 0.2-0.8 0-0.1 0-0.2 0.1-0.4 0-0.3 0.1-0.5 0.1-0.8 0-0.1 0-0.3 0.1-0.4 0-0.2 0.1-0.5 0.1-0.8v-0.6-0.6-1-0.2-0.2-1-0.6-0.6c0-0.3-0.1-0.5-0.1-0.8 0-0.1 0-0.3-0.1-0.4 0-0.3-0.1-0.5-0.1-0.8 0-0.1 0-0.2-0.1-0.4-0.1-0.3-0.1-0.5-0.2-0.8 0-0.1-0.1-0.2-0.1-0.4-0.1-0.3-0.1-0.5-0.2-0.8 0-0.1-0.1-0.3-0.1-0.4-0.1-0.2-0.2-0.5-0.2-0.7 0-0.2-0.1-0.3-0.2-0.5s-0.2-0.4-0.2-0.6c-0.1-0.2-0.1-0.3-0.2-0.5s-0.2-0.4-0.2-0.5l-0.3-0.6c-0.1-0.2-0.2-0.3-0.2-0.5l-0.3-0.6c-0.1-0.1-0.2-0.3-0.2-0.4-0.1-0.2-0.2-0.4-0.4-0.7-0.1-0.1-0.2-0.2-0.2-0.4-0.1-0.2-0.3-0.4-0.4-0.7-0.1-0.1-0.2-0.2-0.2-0.4-0.1-0.2-0.3-0.4-0.4-0.6-0.1-0.1-0.2-0.3-0.3-0.4-0.1-0.2-0.3-0.4-0.4-0.6-0.1-0.2-0.3-0.3-0.4-0.5-0.1-0.1-0.2-0.3-0.3-0.4l-0.9-0.9-74.9-74.9c-9.6-9.6-25.2-9.6-34.9 0-9.6 9.6-9.6 25.2 0 34.8l32.9 32.9H165.4l36.8-36.8c9.6-9.6 9.6-25.2 0-34.8-9.6-9.6-25.2-9.6-34.8 0l-74.9 74.9c-5.3 5.3-7.7 12.5-7.1 19.4-0.6 6.9 1.8 14.1 7.1 19.4l74.9 74.9c4.8 4.8 11.1 7.2 17.4 7.2 6.3 0 12.6-2.4 17.4-7.2 9.6-9.6 9.6-25.2 0-34.9l-32.8-32.8h677.5L814.1 783c-9.6 9.6-9.6 25.2 0 34.9 4.8 4.8 11.1 7.2 17.4 7.2 6.3 0 12.6-2.4 17.4-7.2l74.9-74.9c0.3-0.3 0.6-0.6 0.8-0.9 0.1-0.1 0.2-0.3 0.4-0.4 0 0.4 0.2 0.2 0.3 0z m0 0"
        fill="" p-id="6451"></path>
</svg>