<svg t="1725710978973" class="icon" viewBox="0 0 1062 1024" version="1.1" xmlns="http://www.w3.org/2000/svg" p-id="8032"
    width="200" height="200">
    <path
        d="M904.958869 895.99888l-386.986183-383.99952H1062.398672v31.99996a460.799424 460.799424 0 0 1-135.253164 327.252924z m-230.826378-318.292935l229.546379 226.559716a396.372838 396.372838 0 0 0 93.86655-226.559716zM1062.398672 493.652716H528.212673V0h31.99996C827.732299 0 1062.398672 215.466397 1062.398672 461.652756z m-469.332747-63.99992h404.906161c-19.199976-185.599768-200.106417-348.586231-404.906161-364.372878z"
        fill="#ffffff" p-id="8033"></path>
    <path
        d="M466.346084 1023.99872a465.066085 465.066085 0 1 1 0-930.132171h31.99996v451.412769l320.852932 319.146268-22.613305 22.613305A463.786087 463.786087 0 0 1 466.346084 1023.99872z m-31.99996-865.278918A401.066165 401.066165 0 1 0 725.332427 863.572254l-290.986303-291.839635z"
        fill="#ffffff" p-id="8034"></path>
</svg>